<svg width="32" height="32" viewBox="0 0 32 32" fill="none" xmlns="http://www.w3.org/2000/svg">
  <rect width="32" height="32" rx="8" fill="#1E40AF"/>
  <!-- DNA Helix Structure -->
  <path
    d="M8 8C8 8 16 12 24 8C24 8 16 20 8 24C8 24 16 28 24 24"
    stroke="#10B981"
    stroke-width="2"
    fill="none"
  />
  <path
    d="M24 8C24 8 16 12 8 8C8 8 16 20 24 24C24 24 16 28 8 24"
    stroke="#34D399"
    stroke-width="2"
    fill="none"
  />
  
  <!-- Blockchain Rings -->
  <circle cx="16" cy="10" r="2" stroke="#8B5CF6" stroke-width="1.5" fill="none"/>
  <circle cx="16" cy="16" r="2.5" stroke="#8B5CF6" stroke-width="1.5" fill="none"/>
  <circle cx="16" cy="22" r="2" stroke="#8B5CF6" stroke-width="1.5" fill="none"/>
  
  <!-- Base Pairs -->
  <line x1="12" y1="10" x2="20" y2="10" stroke="#10B981" stroke-width="1"/>
  <line x1="11" y1="16" x2="21" y2="16" stroke="#10B981" stroke-width="1"/>
  <line x1="12" y1="22" x2="20" y2="22" stroke="#10B981" stroke-width="1"/>
</svg>
